<svg width="11" height="18" viewBox="0 0 11 18" fill="none" xmlns="http://www.w3.org/2000/svg">
<path d="M5.0244 1.46622C6.44589 3.44987 7.2047 5.89604 7.17719 8.40611V9.00529L7.64618 9.31897C8.25215 9.7222 8.70408 10.3476 8.91962 11.0813C8.73038 10.9281 8.5324 10.788 8.32687 10.6618L7.07623 9.88995L6.8515 11.4478C6.83203 11.5855 6.80594 11.7219 6.77334 11.8567H3.26894C3.21683 11.6804 3.17449 11.5042 3.13541 11.3209L2.85206 9.9111L1.69913 10.616C1.50651 10.7344 1.32055 10.8651 1.1422 11.0072C1.36194 10.2821 1.80443 9.66018 2.3961 9.24496L2.84229 8.93127V8.37439C2.85034 5.8745 3.61829 3.44694 5.02765 1.46622H5.0244ZM5.02765 0C4.95456 0.000195115 4.884 0.0289871 4.82898 0.0810652L4.79967 0.109262C2.92162 2.38235 1.87876 5.32167 1.86849 8.37086C1.07153 8.93042 0.481607 9.77526 0.201809 10.7577C-0.0779898 11.7402 -0.0298712 12.7979 0.337756 13.7458C0.725031 12.8202 1.37243 12.0505 2.18766 11.5465C2.26942 11.9298 2.3783 12.3057 2.51335 12.6708C2.53047 12.741 2.56844 12.8032 2.62139 12.8478C2.67435 12.8924 2.73938 12.9169 2.80647 12.9176H7.32701C7.4182 12.9176 7.50939 12.8224 7.55499 12.6744C7.68679 12.3272 7.77867 11.9638 7.82856 11.5923C8.64536 12.0943 9.29328 12.8646 9.67847 13.7917C10.0683 12.8483 10.1286 11.784 9.84832 10.7962C9.56802 9.8084 8.96609 8.96418 8.15425 8.42021C8.18646 5.35303 7.14912 2.38543 5.24912 0.109262C5.22083 0.0750277 5.1862 0.0476105 5.14749 0.0287879C5.10877 0.00996526 5.06684 0.000157344 5.0244 0L5.02765 0Z" fill="#4EA8DE"/>
<path d="M5.02446 8.07836C4.7743 8.07835 4.52974 7.9982 4.32162 7.84801C4.11349 7.69782 3.9511 7.48431 3.85493 7.2344C3.75876 6.98448 3.73311 6.70935 3.78121 6.44369C3.82931 6.17802 3.949 5.93371 4.12521 5.74155C4.30141 5.54939 4.52624 5.41798 4.77136 5.36389C5.01647 5.3098 5.27089 5.33545 5.50255 5.4376C5.73422 5.53975 5.93275 5.71384 6.07313 5.93791C6.21351 6.16199 6.28945 6.42602 6.29138 6.69673V6.69673C6.29527 6.87216 6.26719 7.04671 6.20873 7.21039C6.15027 7.37408 6.06258 7.52369 5.95068 7.65069C5.83877 7.77769 5.70483 7.87958 5.55653 7.95054C5.40822 8.0215 5.24845 8.06015 5.08634 8.06426C5.06584 8.06782 5.04495 8.06782 5.02446 8.06426V8.07836Z" fill="#4EA8DE"/>
<path d="M6.78637 13.7951C6.70488 13.7923 6.62369 13.8071 6.54756 13.8387C6.47144 13.8703 6.40191 13.9181 6.34305 13.9791C6.2842 14.0402 6.23721 14.1134 6.20484 14.1943C6.17247 14.2753 6.15537 14.3625 6.15454 14.4507V16.5302C6.15454 16.7116 6.22111 16.8855 6.3396 17.0137C6.45809 17.1419 6.6188 17.214 6.78637 17.214C6.95395 17.214 7.11466 17.1419 7.23315 17.0137C7.35164 16.8855 7.41821 16.7116 7.41821 16.5302V14.4789C7.42081 14.391 7.40722 14.3034 7.37823 14.2213C7.34924 14.1391 7.30542 14.064 7.24934 14.0004C7.19326 13.9367 7.12603 13.8858 7.05158 13.8506C6.97713 13.8153 6.89694 13.7965 6.81569 13.7951H6.78637Z" fill="#5E60CE"/>
<path d="M3.26893 13.7951C3.18605 13.7904 3.10314 13.8037 3.02513 13.8344C2.94712 13.865 2.8756 13.9123 2.81483 13.9735C2.75405 14.0346 2.70527 14.1084 2.67138 14.1904C2.63749 14.2724 2.61919 14.3609 2.61755 14.4507V16.5302C2.61755 16.7115 2.68412 16.8855 2.80261 17.0137C2.92111 17.1419 3.08181 17.214 3.24939 17.214C3.41696 17.214 3.57767 17.1419 3.69616 17.0137C3.81465 16.8855 3.88122 16.7115 3.88122 16.5302V14.4789C3.88382 14.391 3.87023 14.3034 3.84124 14.2213C3.81225 14.1391 3.76844 14.064 3.71235 14.0004C3.65627 13.9367 3.58905 13.8858 3.51459 13.8506C3.44014 13.8153 3.35995 13.7965 3.2787 13.7951H3.26893Z" fill="#5E60CE"/>
<path d="M4.97876 13.7952C4.89749 13.7933 4.81668 13.8088 4.74094 13.8407C4.6652 13.8727 4.59602 13.9204 4.53734 13.9813C4.47867 14.0422 4.43165 14.115 4.39898 14.1955C4.3663 14.2761 4.34862 14.3628 4.34692 14.4508V17.3162C4.34692 17.4976 4.41349 17.6715 4.53198 17.7997C4.65048 17.928 4.81118 18 4.97876 18C5.14633 18 5.30704 17.928 5.42553 17.7997C5.54402 17.6715 5.61059 17.4976 5.61059 17.3162V14.4966C5.61319 14.4087 5.5996 14.3211 5.57061 14.239C5.54162 14.1568 5.49781 14.0817 5.44172 14.0181C5.38564 13.9544 5.31842 13.9035 5.24396 13.8683C5.16951 13.833 5.08932 13.8142 5.00807 13.8128L4.97876 13.7952Z" fill="#5E60CE"/>
</svg>
